{"title":"Community S03E13 HDTV Xvid-LOL","uid":7144100,"size":182692007,"categoryP":"video","categoryS":"tv_shows","magnet":"?xt=urn:btih:ab2fc7afaa842e6dde1ee22b547050c590085244&amp;dn=Community+S03E13+HDTV+Xvid-LOL&amp;tr=udp%3A%2F%2Ftracker.openbittorrent.com%3A80&amp;tr=udp%3A%2F%2Fopen.demonii.com%3A1337&amp;tr=udp%3A%2F%2Ftracker.coppersurfer.tk%3A6969&amp;tr=udp%3A%2F%2Fexodus.desync.com%3A6969","seeders":1,"leechers":0,"uploader":"Heterodox","files":-1,"time":1333095076,"description":"Format                                   : AVI\nFormat/Info                              : Audio Video Interleave\nFile size                                : 174 MiB\nDuration                                 : 21mn 17s\nOverall bit rate                         : 1 144 Kbps\nWriting application                      : Lavf52.39.1\n\nVideo\nID                                       : 0\nFormat                                   : xvid\nCodec ID                                 : xvid\nDuration                                 : 21mn 17s\nBit rate                                 : 1 068 Kbps\nWidth                                    : 640 pixels\nHeight                                   : 360 pixels\nDisplay aspect ratio                     : 16:9\nFrame rate                               : 23.976 fps\nBits/(Pixel*Frame)                       : 0.193\nStream size                              : 163 MiB (93%)\n\nAudio\nID                                       : 1\nFormat                                   : MPEG Audio\nFormat version                           : Version 1\nFormat profile                           : Layer 3\nMode                                     : Joint stereo\nMode extension                           : MS Stereo\nCodec ID                                 : 55\nCodec ID/Hint                            : MP3\nDuration                                 : 21mn 17s\nBit rate mode                            : Constant\nBit rate                                 : 64.0 Kbps\nChannel(s)                               : 2 channels\nSampling rate                            : 44.1 KHz\nCompression mode                         : Lossy\nStream size                              : 9.75 MiB (6%)\nAlignment                                : Aligned on interleaves\nInterleave, duration                     : 26 ms (0.63 video frame)\n","torrent":{"xt":"urn:btih:ab2fc7afaa842e6dde1ee22b547050c590085244","amp;dn":"Community+S03E13+HDTV+Xvid-LOL","amp;tr":["udp%3A%2F%2Ftracker.openbittorrent.com%3A80","udp%3A%2F%2Fopen.demonii.com%3A1337","udp%3A%2F%2Ftracker.coppersurfer.tk%3A6969","udp%3A%2F%2Fexodus.desync.com%3A6969"],"infoHash":"ab2fc7afaa842e6dde1ee22b547050c590085244","infoHashBuffer":{"type":"Buffer","data":[171,47,199,175,170,132,46,109,222,30,226,43,84,112,80,197,144,8,82,68]},"announce":[],"urlList":[]}}